M48
; DRILL file {KiCad (6.0.0)} date Fri Aug 19 23:12:07 2022
; FORMAT={-:-/ absolute / inch / decimal}
; #@! TF.CreationDate,2022-08-19T23:12:07-05:00
; #@! TF.GenerationSoftware,Kicad,Pcbnew,(6.0.0)
; #@! TF.FileFunction,Plated,1,2,PTH
FMAT,2
INCH
; #@! TA.AperFunction,Plated,PTH,ComponentDrill
T1C0.0276
; #@! TA.AperFunction,Plated,PTH,ComponentDrill
T2C0.0394
; #@! TA.AperFunction,Plated,PTH,ComponentDrill
T3C0.0591
; #@! TA.AperFunction,Plated,PTH,ComponentDrill
T4C0.0709
%
G90
G05
T1
X6.0035Y-3.6793
X6.0035Y-3.7541
X6.0055Y-3.4096
X6.0055Y-3.4844
T2
X4.9661Y-2.672
X4.9661Y-2.772
X4.9661Y-2.872
X4.9661Y-2.972
X4.9661Y-3.072
X4.9661Y-3.172
X4.9661Y-3.272
X4.9661Y-3.372
X4.9661Y-3.472
X4.9661Y-3.572
X4.9661Y-3.672
X4.9661Y-3.772
X4.9661Y-3.872
X4.9661Y-3.972
X4.9661Y-4.072
X5.5661Y-2.672
X5.5661Y-2.772
X5.5661Y-2.872
X5.5661Y-2.972
X5.5661Y-3.072
X5.5661Y-3.172
X5.5661Y-3.272
X5.5661Y-3.372
X5.5661Y-3.472
X5.5661Y-3.572
X5.5661Y-3.672
X5.5661Y-3.772
X5.5661Y-3.872
X5.5661Y-3.972
X5.5661Y-4.072
T3
X6.3366Y-3.3622
X6.3366Y-3.8622
X6.8366Y-3.3622
X6.8366Y-3.8622
T4
X7.363Y-3.4431
X7.363Y-3.6675
T0
M30
