%TF.GenerationSoftware,KiCad,Pcbnew,(6.0.0)*%
%TF.CreationDate,2022-07-31T16:11:20-05:00*%
%TF.ProjectId,FrequencySensor,46726571-7565-46e6-9379-53656e736f72,rev?*%
%TF.SameCoordinates,Original*%
%TF.FileFunction,Legend,Top*%
%TF.FilePolarity,Positive*%
%FSLAX46Y46*%
G04 Gerber Fmt 4.6, Leading zero omitted, Abs format (unit mm)*
G04 Created by KiCad (PCBNEW (6.0.0)) date 2022-07-31 16:11:20*
%MOMM*%
%LPD*%
G01*
G04 APERTURE LIST*
%ADD10C,0.300000*%
%ADD11C,0.150000*%
%ADD12C,0.254000*%
%ADD13C,0.120000*%
%ADD14C,0.200000*%
G04 APERTURE END LIST*
D10*
X133161071Y-89992857D02*
X131661071Y-89992857D01*
X132732500Y-89492857D01*
X131661071Y-88992857D01*
X133161071Y-88992857D01*
X133161071Y-87635714D02*
X132375357Y-87635714D01*
X132232500Y-87707142D01*
X132161071Y-87850000D01*
X132161071Y-88135714D01*
X132232500Y-88278571D01*
X133089642Y-87635714D02*
X133161071Y-87778571D01*
X133161071Y-88135714D01*
X133089642Y-88278571D01*
X132946785Y-88350000D01*
X132803928Y-88350000D01*
X132661071Y-88278571D01*
X132589642Y-88135714D01*
X132589642Y-87778571D01*
X132518214Y-87635714D01*
X132161071Y-86921428D02*
X133161071Y-86921428D01*
X132303928Y-86921428D02*
X132232500Y-86850000D01*
X132161071Y-86707142D01*
X132161071Y-86492857D01*
X132232500Y-86350000D01*
X132375357Y-86278571D01*
X133161071Y-86278571D01*
X132161071Y-85778571D02*
X132161071Y-85207142D01*
X131661071Y-85564285D02*
X132946785Y-85564285D01*
X133089642Y-85492857D01*
X133161071Y-85350000D01*
X133161071Y-85207142D01*
X133161071Y-84707142D02*
X131661071Y-84707142D01*
X133161071Y-84064285D02*
X132375357Y-84064285D01*
X132232500Y-84135714D01*
X132161071Y-84278571D01*
X132161071Y-84492857D01*
X132232500Y-84635714D01*
X132303928Y-84707142D01*
X133161071Y-82707142D02*
X132375357Y-82707142D01*
X132232500Y-82778571D01*
X132161071Y-82921428D01*
X132161071Y-83207142D01*
X132232500Y-83350000D01*
X133089642Y-82707142D02*
X133161071Y-82850000D01*
X133161071Y-83207142D01*
X133089642Y-83350000D01*
X132946785Y-83421428D01*
X132803928Y-83421428D01*
X132661071Y-83350000D01*
X132589642Y-83207142D01*
X132589642Y-82850000D01*
X132518214Y-82707142D01*
X132161071Y-81992857D02*
X133161071Y-81992857D01*
X132303928Y-81992857D02*
X132232500Y-81921428D01*
X132161071Y-81778571D01*
X132161071Y-81564285D01*
X132232500Y-81421428D01*
X132375357Y-81350000D01*
X133161071Y-81350000D01*
X134576071Y-89957142D02*
X135576071Y-89671428D01*
X134861785Y-89385714D01*
X135576071Y-89100000D01*
X134576071Y-88814285D01*
X134576071Y-87600000D02*
X135576071Y-87600000D01*
X134576071Y-88242857D02*
X135361785Y-88242857D01*
X135504642Y-88171428D01*
X135576071Y-88028571D01*
X135576071Y-87814285D01*
X135504642Y-87671428D01*
X135433214Y-87600000D01*
X134576071Y-87028571D02*
X134576071Y-86242857D01*
X135576071Y-87028571D01*
X135576071Y-86242857D01*
X135576071Y-84528571D02*
X134076071Y-84528571D01*
X135576071Y-83885714D02*
X134790357Y-83885714D01*
X134647500Y-83957142D01*
X134576071Y-84100000D01*
X134576071Y-84314285D01*
X134647500Y-84457142D01*
X134718928Y-84528571D01*
X135504642Y-82600000D02*
X135576071Y-82742857D01*
X135576071Y-83028571D01*
X135504642Y-83171428D01*
X135361785Y-83242857D01*
X134790357Y-83242857D01*
X134647500Y-83171428D01*
X134576071Y-83028571D01*
X134576071Y-82742857D01*
X134647500Y-82600000D01*
X134790357Y-82528571D01*
X134933214Y-82528571D01*
X135076071Y-83242857D01*
X135576071Y-81885714D02*
X134576071Y-81885714D01*
X134861785Y-81885714D02*
X134718928Y-81814285D01*
X134647500Y-81742857D01*
X134576071Y-81600000D01*
X134576071Y-81457142D01*
X135504642Y-80385714D02*
X135576071Y-80528571D01*
X135576071Y-80814285D01*
X135504642Y-80957142D01*
X135361785Y-81028571D01*
X134790357Y-81028571D01*
X134647500Y-80957142D01*
X134576071Y-80814285D01*
X134576071Y-80528571D01*
X134647500Y-80385714D01*
X134790357Y-80314285D01*
X134933214Y-80314285D01*
X135076071Y-81028571D01*
X153297142Y-61763571D02*
X154154285Y-61763571D01*
X153725714Y-63263571D02*
X153725714Y-61763571D01*
X154654285Y-63263571D02*
X154654285Y-61763571D01*
X155297142Y-63263571D02*
X155297142Y-62477857D01*
X155225714Y-62335000D01*
X155082857Y-62263571D01*
X154868571Y-62263571D01*
X154725714Y-62335000D01*
X154654285Y-62406428D01*
X156011428Y-63263571D02*
X156011428Y-62263571D01*
X156011428Y-61763571D02*
X155940000Y-61835000D01*
X156011428Y-61906428D01*
X156082857Y-61835000D01*
X156011428Y-61763571D01*
X156011428Y-61906428D01*
X156654285Y-63192142D02*
X156797142Y-63263571D01*
X157082857Y-63263571D01*
X157225714Y-63192142D01*
X157297142Y-63049285D01*
X157297142Y-62977857D01*
X157225714Y-62835000D01*
X157082857Y-62763571D01*
X156868571Y-62763571D01*
X156725714Y-62692142D01*
X156654285Y-62549285D01*
X156654285Y-62477857D01*
X156725714Y-62335000D01*
X156868571Y-62263571D01*
X157082857Y-62263571D01*
X157225714Y-62335000D01*
X159082857Y-63263571D02*
X159082857Y-61763571D01*
X159082857Y-62335000D02*
X159225714Y-62263571D01*
X159511428Y-62263571D01*
X159654285Y-62335000D01*
X159725714Y-62406428D01*
X159797142Y-62549285D01*
X159797142Y-62977857D01*
X159725714Y-63120714D01*
X159654285Y-63192142D01*
X159511428Y-63263571D01*
X159225714Y-63263571D01*
X159082857Y-63192142D01*
X160654285Y-63263571D02*
X160511428Y-63192142D01*
X160440000Y-63120714D01*
X160368571Y-62977857D01*
X160368571Y-62549285D01*
X160440000Y-62406428D01*
X160511428Y-62335000D01*
X160654285Y-62263571D01*
X160868571Y-62263571D01*
X161011428Y-62335000D01*
X161082857Y-62406428D01*
X161154285Y-62549285D01*
X161154285Y-62977857D01*
X161082857Y-63120714D01*
X161011428Y-63192142D01*
X160868571Y-63263571D01*
X160654285Y-63263571D01*
X162440000Y-63263571D02*
X162440000Y-62477857D01*
X162368571Y-62335000D01*
X162225714Y-62263571D01*
X161940000Y-62263571D01*
X161797142Y-62335000D01*
X162440000Y-63192142D02*
X162297142Y-63263571D01*
X161940000Y-63263571D01*
X161797142Y-63192142D01*
X161725714Y-63049285D01*
X161725714Y-62906428D01*
X161797142Y-62763571D01*
X161940000Y-62692142D01*
X162297142Y-62692142D01*
X162440000Y-62620714D01*
X163154285Y-63263571D02*
X163154285Y-62263571D01*
X163154285Y-62549285D02*
X163225714Y-62406428D01*
X163297142Y-62335000D01*
X163440000Y-62263571D01*
X163582857Y-62263571D01*
X164725714Y-63263571D02*
X164725714Y-61763571D01*
X164725714Y-63192142D02*
X164582857Y-63263571D01*
X164297142Y-63263571D01*
X164154285Y-63192142D01*
X164082857Y-63120714D01*
X164011428Y-62977857D01*
X164011428Y-62549285D01*
X164082857Y-62406428D01*
X164154285Y-62335000D01*
X164297142Y-62263571D01*
X164582857Y-62263571D01*
X164725714Y-62335000D01*
X166440000Y-62263571D02*
X166725714Y-63263571D01*
X167011428Y-62549285D01*
X167297142Y-63263571D01*
X167582857Y-62263571D01*
X168797142Y-63263571D02*
X168797142Y-62477857D01*
X168725714Y-62335000D01*
X168582857Y-62263571D01*
X168297142Y-62263571D01*
X168154285Y-62335000D01*
X168797142Y-63192142D02*
X168654285Y-63263571D01*
X168297142Y-63263571D01*
X168154285Y-63192142D01*
X168082857Y-63049285D01*
X168082857Y-62906428D01*
X168154285Y-62763571D01*
X168297142Y-62692142D01*
X168654285Y-62692142D01*
X168797142Y-62620714D01*
X169440000Y-63192142D02*
X169582857Y-63263571D01*
X169868571Y-63263571D01*
X170011428Y-63192142D01*
X170082857Y-63049285D01*
X170082857Y-62977857D01*
X170011428Y-62835000D01*
X169868571Y-62763571D01*
X169654285Y-62763571D01*
X169511428Y-62692142D01*
X169440000Y-62549285D01*
X169440000Y-62477857D01*
X169511428Y-62335000D01*
X169654285Y-62263571D01*
X169868571Y-62263571D01*
X170011428Y-62335000D01*
X172511428Y-63263571D02*
X172511428Y-61763571D01*
X172511428Y-63192142D02*
X172368571Y-63263571D01*
X172082857Y-63263571D01*
X171940000Y-63192142D01*
X171868571Y-63120714D01*
X171797142Y-62977857D01*
X171797142Y-62549285D01*
X171868571Y-62406428D01*
X171940000Y-62335000D01*
X172082857Y-62263571D01*
X172368571Y-62263571D01*
X172511428Y-62335000D01*
X173797142Y-63192142D02*
X173654285Y-63263571D01*
X173368571Y-63263571D01*
X173225714Y-63192142D01*
X173154285Y-63049285D01*
X173154285Y-62477857D01*
X173225714Y-62335000D01*
X173368571Y-62263571D01*
X173654285Y-62263571D01*
X173797142Y-62335000D01*
X173868571Y-62477857D01*
X173868571Y-62620714D01*
X173154285Y-62763571D01*
X174440000Y-63192142D02*
X174582857Y-63263571D01*
X174868571Y-63263571D01*
X175011428Y-63192142D01*
X175082857Y-63049285D01*
X175082857Y-62977857D01*
X175011428Y-62835000D01*
X174868571Y-62763571D01*
X174654285Y-62763571D01*
X174511428Y-62692142D01*
X174440000Y-62549285D01*
X174440000Y-62477857D01*
X174511428Y-62335000D01*
X174654285Y-62263571D01*
X174868571Y-62263571D01*
X175011428Y-62335000D01*
X175725714Y-63263571D02*
X175725714Y-62263571D01*
X175725714Y-61763571D02*
X175654285Y-61835000D01*
X175725714Y-61906428D01*
X175797142Y-61835000D01*
X175725714Y-61763571D01*
X175725714Y-61906428D01*
X177082857Y-62263571D02*
X177082857Y-63477857D01*
X177011428Y-63620714D01*
X176940000Y-63692142D01*
X176797142Y-63763571D01*
X176582857Y-63763571D01*
X176440000Y-63692142D01*
X177082857Y-63192142D02*
X176940000Y-63263571D01*
X176654285Y-63263571D01*
X176511428Y-63192142D01*
X176440000Y-63120714D01*
X176368571Y-62977857D01*
X176368571Y-62549285D01*
X176440000Y-62406428D01*
X176511428Y-62335000D01*
X176654285Y-62263571D01*
X176940000Y-62263571D01*
X177082857Y-62335000D01*
X177797142Y-62263571D02*
X177797142Y-63263571D01*
X177797142Y-62406428D02*
X177868571Y-62335000D01*
X178011428Y-62263571D01*
X178225714Y-62263571D01*
X178368571Y-62335000D01*
X178440000Y-62477857D01*
X178440000Y-63263571D01*
X179725714Y-63192142D02*
X179582857Y-63263571D01*
X179297142Y-63263571D01*
X179154285Y-63192142D01*
X179082857Y-63049285D01*
X179082857Y-62477857D01*
X179154285Y-62335000D01*
X179297142Y-62263571D01*
X179582857Y-62263571D01*
X179725714Y-62335000D01*
X179797142Y-62477857D01*
X179797142Y-62620714D01*
X179082857Y-62763571D01*
X181082857Y-63263571D02*
X181082857Y-61763571D01*
X181082857Y-63192142D02*
X180940000Y-63263571D01*
X180654285Y-63263571D01*
X180511428Y-63192142D01*
X180440000Y-63120714D01*
X180368571Y-62977857D01*
X180368571Y-62549285D01*
X180440000Y-62406428D01*
X180511428Y-62335000D01*
X180654285Y-62263571D01*
X180940000Y-62263571D01*
X181082857Y-62335000D01*
X182725714Y-62263571D02*
X183297142Y-62263571D01*
X182940000Y-63263571D02*
X182940000Y-61977857D01*
X183011428Y-61835000D01*
X183154285Y-61763571D01*
X183297142Y-61763571D01*
X184011428Y-63263571D02*
X183868571Y-63192142D01*
X183797142Y-63120714D01*
X183725714Y-62977857D01*
X183725714Y-62549285D01*
X183797142Y-62406428D01*
X183868571Y-62335000D01*
X184011428Y-62263571D01*
X184225714Y-62263571D01*
X184368571Y-62335000D01*
X184440000Y-62406428D01*
X184511428Y-62549285D01*
X184511428Y-62977857D01*
X184440000Y-63120714D01*
X184368571Y-63192142D01*
X184225714Y-63263571D01*
X184011428Y-63263571D01*
X185154285Y-63263571D02*
X185154285Y-62263571D01*
X185154285Y-62549285D02*
X185225714Y-62406428D01*
X185297142Y-62335000D01*
X185440000Y-62263571D01*
X185582857Y-62263571D01*
X187868571Y-63263571D02*
X187868571Y-62477857D01*
X187797142Y-62335000D01*
X187654285Y-62263571D01*
X187368571Y-62263571D01*
X187225714Y-62335000D01*
X187868571Y-63192142D02*
X187725714Y-63263571D01*
X187368571Y-63263571D01*
X187225714Y-63192142D01*
X187154285Y-63049285D01*
X187154285Y-62906428D01*
X187225714Y-62763571D01*
X187368571Y-62692142D01*
X187725714Y-62692142D01*
X187868571Y-62620714D01*
X188582857Y-62263571D02*
X188582857Y-63263571D01*
X188582857Y-62406428D02*
X188654285Y-62335000D01*
X188797142Y-62263571D01*
X189011428Y-62263571D01*
X189154285Y-62335000D01*
X189225714Y-62477857D01*
X189225714Y-63263571D01*
X152868571Y-65678571D02*
X152868571Y-64892857D01*
X152797142Y-64750000D01*
X152654285Y-64678571D01*
X152368571Y-64678571D01*
X152225714Y-64750000D01*
X152868571Y-65607142D02*
X152725714Y-65678571D01*
X152368571Y-65678571D01*
X152225714Y-65607142D01*
X152154285Y-65464285D01*
X152154285Y-65321428D01*
X152225714Y-65178571D01*
X152368571Y-65107142D01*
X152725714Y-65107142D01*
X152868571Y-65035714D01*
X153582857Y-65678571D02*
X153582857Y-64678571D01*
X153582857Y-64964285D02*
X153654285Y-64821428D01*
X153725714Y-64750000D01*
X153868571Y-64678571D01*
X154011428Y-64678571D01*
X155154285Y-65678571D02*
X155154285Y-64178571D01*
X155154285Y-65607142D02*
X155011428Y-65678571D01*
X154725714Y-65678571D01*
X154582857Y-65607142D01*
X154511428Y-65535714D01*
X154440000Y-65392857D01*
X154440000Y-64964285D01*
X154511428Y-64821428D01*
X154582857Y-64750000D01*
X154725714Y-64678571D01*
X155011428Y-64678571D01*
X155154285Y-64750000D01*
X156511428Y-64678571D02*
X156511428Y-65678571D01*
X155868571Y-64678571D02*
X155868571Y-65464285D01*
X155940000Y-65607142D01*
X156082857Y-65678571D01*
X156297142Y-65678571D01*
X156440000Y-65607142D01*
X156511428Y-65535714D01*
X157225714Y-65678571D02*
X157225714Y-64678571D01*
X157225714Y-64178571D02*
X157154285Y-64250000D01*
X157225714Y-64321428D01*
X157297142Y-64250000D01*
X157225714Y-64178571D01*
X157225714Y-64321428D01*
X157940000Y-64678571D02*
X157940000Y-65678571D01*
X157940000Y-64821428D02*
X158011428Y-64750000D01*
X158154285Y-64678571D01*
X158368571Y-64678571D01*
X158511428Y-64750000D01*
X158582857Y-64892857D01*
X158582857Y-65678571D01*
X159511428Y-65678571D02*
X159368571Y-65607142D01*
X159297142Y-65535714D01*
X159225714Y-65392857D01*
X159225714Y-64964285D01*
X159297142Y-64821428D01*
X159368571Y-64750000D01*
X159511428Y-64678571D01*
X159725714Y-64678571D01*
X159868571Y-64750000D01*
X159940000Y-64821428D01*
X160011428Y-64964285D01*
X160011428Y-65392857D01*
X159940000Y-65535714D01*
X159868571Y-65607142D01*
X159725714Y-65678571D01*
X159511428Y-65678571D01*
X161582857Y-64678571D02*
X162154285Y-64678571D01*
X161797142Y-64178571D02*
X161797142Y-65464285D01*
X161868571Y-65607142D01*
X162011428Y-65678571D01*
X162154285Y-65678571D01*
X162868571Y-65678571D02*
X162725714Y-65607142D01*
X162654285Y-65535714D01*
X162582857Y-65392857D01*
X162582857Y-64964285D01*
X162654285Y-64821428D01*
X162725714Y-64750000D01*
X162868571Y-64678571D01*
X163082857Y-64678571D01*
X163225714Y-64750000D01*
X163297142Y-64821428D01*
X163368571Y-64964285D01*
X163368571Y-65392857D01*
X163297142Y-65535714D01*
X163225714Y-65607142D01*
X163082857Y-65678571D01*
X162868571Y-65678571D01*
X165154285Y-65678571D02*
X165154285Y-64678571D01*
X165154285Y-64821428D02*
X165225714Y-64750000D01*
X165368571Y-64678571D01*
X165582857Y-64678571D01*
X165725714Y-64750000D01*
X165797142Y-64892857D01*
X165797142Y-65678571D01*
X165797142Y-64892857D02*
X165868571Y-64750000D01*
X166011428Y-64678571D01*
X166225714Y-64678571D01*
X166368571Y-64750000D01*
X166440000Y-64892857D01*
X166440000Y-65678571D01*
X167725714Y-65607142D02*
X167582857Y-65678571D01*
X167297142Y-65678571D01*
X167154285Y-65607142D01*
X167082857Y-65464285D01*
X167082857Y-64892857D01*
X167154285Y-64750000D01*
X167297142Y-64678571D01*
X167582857Y-64678571D01*
X167725714Y-64750000D01*
X167797142Y-64892857D01*
X167797142Y-65035714D01*
X167082857Y-65178571D01*
X169082857Y-65678571D02*
X169082857Y-64892857D01*
X169011428Y-64750000D01*
X168868571Y-64678571D01*
X168582857Y-64678571D01*
X168440000Y-64750000D01*
X169082857Y-65607142D02*
X168940000Y-65678571D01*
X168582857Y-65678571D01*
X168440000Y-65607142D01*
X168368571Y-65464285D01*
X168368571Y-65321428D01*
X168440000Y-65178571D01*
X168582857Y-65107142D01*
X168940000Y-65107142D01*
X169082857Y-65035714D01*
X169725714Y-65607142D02*
X169868571Y-65678571D01*
X170154285Y-65678571D01*
X170297142Y-65607142D01*
X170368571Y-65464285D01*
X170368571Y-65392857D01*
X170297142Y-65250000D01*
X170154285Y-65178571D01*
X169940000Y-65178571D01*
X169797142Y-65107142D01*
X169725714Y-64964285D01*
X169725714Y-64892857D01*
X169797142Y-64750000D01*
X169940000Y-64678571D01*
X170154285Y-64678571D01*
X170297142Y-64750000D01*
X171654285Y-64678571D02*
X171654285Y-65678571D01*
X171011428Y-64678571D02*
X171011428Y-65464285D01*
X171082857Y-65607142D01*
X171225714Y-65678571D01*
X171440000Y-65678571D01*
X171582857Y-65607142D01*
X171654285Y-65535714D01*
X172368571Y-65678571D02*
X172368571Y-64678571D01*
X172368571Y-64964285D02*
X172440000Y-64821428D01*
X172511428Y-64750000D01*
X172654285Y-64678571D01*
X172797142Y-64678571D01*
X173868571Y-65607142D02*
X173725714Y-65678571D01*
X173440000Y-65678571D01*
X173297142Y-65607142D01*
X173225714Y-65464285D01*
X173225714Y-64892857D01*
X173297142Y-64750000D01*
X173440000Y-64678571D01*
X173725714Y-64678571D01*
X173868571Y-64750000D01*
X173940000Y-64892857D01*
X173940000Y-65035714D01*
X173225714Y-65178571D01*
X175511428Y-64678571D02*
X176082857Y-64678571D01*
X175725714Y-64178571D02*
X175725714Y-65464285D01*
X175797142Y-65607142D01*
X175940000Y-65678571D01*
X176082857Y-65678571D01*
X176582857Y-65678571D02*
X176582857Y-64178571D01*
X177225714Y-65678571D02*
X177225714Y-64892857D01*
X177154285Y-64750000D01*
X177011428Y-64678571D01*
X176797142Y-64678571D01*
X176654285Y-64750000D01*
X176582857Y-64821428D01*
X178511428Y-65607142D02*
X178368571Y-65678571D01*
X178082857Y-65678571D01*
X177940000Y-65607142D01*
X177868571Y-65464285D01*
X177868571Y-64892857D01*
X177940000Y-64750000D01*
X178082857Y-64678571D01*
X178368571Y-64678571D01*
X178511428Y-64750000D01*
X178582857Y-64892857D01*
X178582857Y-65035714D01*
X177868571Y-65178571D01*
X180154285Y-64678571D02*
X180725714Y-64678571D01*
X180368571Y-65678571D02*
X180368571Y-64392857D01*
X180440000Y-64250000D01*
X180582857Y-64178571D01*
X180725714Y-64178571D01*
X181225714Y-65678571D02*
X181225714Y-64678571D01*
X181225714Y-64964285D02*
X181297142Y-64821428D01*
X181368571Y-64750000D01*
X181511428Y-64678571D01*
X181654285Y-64678571D01*
X182725714Y-65607142D02*
X182582857Y-65678571D01*
X182297142Y-65678571D01*
X182154285Y-65607142D01*
X182082857Y-65464285D01*
X182082857Y-64892857D01*
X182154285Y-64750000D01*
X182297142Y-64678571D01*
X182582857Y-64678571D01*
X182725714Y-64750000D01*
X182797142Y-64892857D01*
X182797142Y-65035714D01*
X182082857Y-65178571D01*
X184082857Y-64678571D02*
X184082857Y-66178571D01*
X184082857Y-65607142D02*
X183940000Y-65678571D01*
X183654285Y-65678571D01*
X183511428Y-65607142D01*
X183440000Y-65535714D01*
X183368571Y-65392857D01*
X183368571Y-64964285D01*
X183440000Y-64821428D01*
X183511428Y-64750000D01*
X183654285Y-64678571D01*
X183940000Y-64678571D01*
X184082857Y-64750000D01*
X185440000Y-64678571D02*
X185440000Y-65678571D01*
X184797142Y-64678571D02*
X184797142Y-65464285D01*
X184868571Y-65607142D01*
X185011428Y-65678571D01*
X185225714Y-65678571D01*
X185368571Y-65607142D01*
X185440000Y-65535714D01*
X186725714Y-65607142D02*
X186582857Y-65678571D01*
X186297142Y-65678571D01*
X186154285Y-65607142D01*
X186082857Y-65464285D01*
X186082857Y-64892857D01*
X186154285Y-64750000D01*
X186297142Y-64678571D01*
X186582857Y-64678571D01*
X186725714Y-64750000D01*
X186797142Y-64892857D01*
X186797142Y-65035714D01*
X186082857Y-65178571D01*
X187440000Y-64678571D02*
X187440000Y-65678571D01*
X187440000Y-64821428D02*
X187511428Y-64750000D01*
X187654285Y-64678571D01*
X187868571Y-64678571D01*
X188011428Y-64750000D01*
X188082857Y-64892857D01*
X188082857Y-65678571D01*
X189440000Y-65607142D02*
X189297142Y-65678571D01*
X189011428Y-65678571D01*
X188868571Y-65607142D01*
X188797142Y-65535714D01*
X188725714Y-65392857D01*
X188725714Y-64964285D01*
X188797142Y-64821428D01*
X188868571Y-64750000D01*
X189011428Y-64678571D01*
X189297142Y-64678571D01*
X189440000Y-64750000D01*
X189940000Y-64678571D02*
X190297142Y-65678571D01*
X190654285Y-64678571D02*
X190297142Y-65678571D01*
X190154285Y-66035714D01*
X190082857Y-66107142D01*
X189940000Y-66178571D01*
X155797142Y-68093571D02*
X155797142Y-67093571D01*
X155797142Y-66593571D02*
X155725714Y-66665000D01*
X155797142Y-66736428D01*
X155868571Y-66665000D01*
X155797142Y-66593571D01*
X155797142Y-66736428D01*
X156511428Y-67093571D02*
X156511428Y-68093571D01*
X156511428Y-67236428D02*
X156582857Y-67165000D01*
X156725714Y-67093571D01*
X156940000Y-67093571D01*
X157082857Y-67165000D01*
X157154285Y-67307857D01*
X157154285Y-68093571D01*
X157868571Y-67093571D02*
X157868571Y-68593571D01*
X157868571Y-67165000D02*
X158011428Y-67093571D01*
X158297142Y-67093571D01*
X158440000Y-67165000D01*
X158511428Y-67236428D01*
X158582857Y-67379285D01*
X158582857Y-67807857D01*
X158511428Y-67950714D01*
X158440000Y-68022142D01*
X158297142Y-68093571D01*
X158011428Y-68093571D01*
X157868571Y-68022142D01*
X159868571Y-67093571D02*
X159868571Y-68093571D01*
X159225714Y-67093571D02*
X159225714Y-67879285D01*
X159297142Y-68022142D01*
X159440000Y-68093571D01*
X159654285Y-68093571D01*
X159797142Y-68022142D01*
X159868571Y-67950714D01*
X160368571Y-67093571D02*
X160940000Y-67093571D01*
X160582857Y-66593571D02*
X160582857Y-67879285D01*
X160654285Y-68022142D01*
X160797142Y-68093571D01*
X160940000Y-68093571D01*
X162368571Y-67093571D02*
X162940000Y-67093571D01*
X162582857Y-66593571D02*
X162582857Y-67879285D01*
X162654285Y-68022142D01*
X162797142Y-68093571D01*
X162940000Y-68093571D01*
X163440000Y-68093571D02*
X163440000Y-66593571D01*
X164082857Y-68093571D02*
X164082857Y-67307857D01*
X164011428Y-67165000D01*
X163868571Y-67093571D01*
X163654285Y-67093571D01*
X163511428Y-67165000D01*
X163440000Y-67236428D01*
X164797142Y-68093571D02*
X164797142Y-67093571D01*
X164797142Y-67379285D02*
X164868571Y-67236428D01*
X164940000Y-67165000D01*
X165082857Y-67093571D01*
X165225714Y-67093571D01*
X165940000Y-68093571D02*
X165797142Y-68022142D01*
X165725714Y-67950714D01*
X165654285Y-67807857D01*
X165654285Y-67379285D01*
X165725714Y-67236428D01*
X165797142Y-67165000D01*
X165940000Y-67093571D01*
X166154285Y-67093571D01*
X166297142Y-67165000D01*
X166368571Y-67236428D01*
X166440000Y-67379285D01*
X166440000Y-67807857D01*
X166368571Y-67950714D01*
X166297142Y-68022142D01*
X166154285Y-68093571D01*
X165940000Y-68093571D01*
X167725714Y-67093571D02*
X167725714Y-68093571D01*
X167082857Y-67093571D02*
X167082857Y-67879285D01*
X167154285Y-68022142D01*
X167297142Y-68093571D01*
X167511428Y-68093571D01*
X167654285Y-68022142D01*
X167725714Y-67950714D01*
X169082857Y-67093571D02*
X169082857Y-68307857D01*
X169011428Y-68450714D01*
X168940000Y-68522142D01*
X168797142Y-68593571D01*
X168582857Y-68593571D01*
X168440000Y-68522142D01*
X169082857Y-68022142D02*
X168940000Y-68093571D01*
X168654285Y-68093571D01*
X168511428Y-68022142D01*
X168440000Y-67950714D01*
X168368571Y-67807857D01*
X168368571Y-67379285D01*
X168440000Y-67236428D01*
X168511428Y-67165000D01*
X168654285Y-67093571D01*
X168940000Y-67093571D01*
X169082857Y-67165000D01*
X169797142Y-68093571D02*
X169797142Y-66593571D01*
X170440000Y-68093571D02*
X170440000Y-67307857D01*
X170368571Y-67165000D01*
X170225714Y-67093571D01*
X170011428Y-67093571D01*
X169868571Y-67165000D01*
X169797142Y-67236428D01*
X172940000Y-68093571D02*
X172940000Y-67307857D01*
X172868571Y-67165000D01*
X172725714Y-67093571D01*
X172440000Y-67093571D01*
X172297142Y-67165000D01*
X172940000Y-68022142D02*
X172797142Y-68093571D01*
X172440000Y-68093571D01*
X172297142Y-68022142D01*
X172225714Y-67879285D01*
X172225714Y-67736428D01*
X172297142Y-67593571D01*
X172440000Y-67522142D01*
X172797142Y-67522142D01*
X172940000Y-67450714D01*
X174654285Y-67093571D02*
X174940000Y-68093571D01*
X175225714Y-67379285D01*
X175511428Y-68093571D01*
X175797142Y-67093571D01*
X177011428Y-68093571D02*
X177011428Y-67307857D01*
X176940000Y-67165000D01*
X176797142Y-67093571D01*
X176511428Y-67093571D01*
X176368571Y-67165000D01*
X177011428Y-68022142D02*
X176868571Y-68093571D01*
X176511428Y-68093571D01*
X176368571Y-68022142D01*
X176297142Y-67879285D01*
X176297142Y-67736428D01*
X176368571Y-67593571D01*
X176511428Y-67522142D01*
X176868571Y-67522142D01*
X177011428Y-67450714D01*
X177940000Y-68093571D02*
X177797142Y-68022142D01*
X177725714Y-67879285D01*
X177725714Y-66593571D01*
X178725714Y-68093571D02*
X178582857Y-68022142D01*
X178511428Y-67879285D01*
X178511428Y-66593571D01*
X180654285Y-68093571D02*
X180511428Y-68022142D01*
X180440000Y-67950714D01*
X180368571Y-67807857D01*
X180368571Y-67379285D01*
X180440000Y-67236428D01*
X180511428Y-67165000D01*
X180654285Y-67093571D01*
X180868571Y-67093571D01*
X181011428Y-67165000D01*
X181082857Y-67236428D01*
X181154285Y-67379285D01*
X181154285Y-67807857D01*
X181082857Y-67950714D01*
X181011428Y-68022142D01*
X180868571Y-68093571D01*
X180654285Y-68093571D01*
X182440000Y-67093571D02*
X182440000Y-68093571D01*
X181797142Y-67093571D02*
X181797142Y-67879285D01*
X181868571Y-68022142D01*
X182011428Y-68093571D01*
X182225714Y-68093571D01*
X182368571Y-68022142D01*
X182440000Y-67950714D01*
X182940000Y-67093571D02*
X183511428Y-67093571D01*
X183154285Y-66593571D02*
X183154285Y-67879285D01*
X183225714Y-68022142D01*
X183368571Y-68093571D01*
X183511428Y-68093571D01*
X184225714Y-68093571D02*
X184082857Y-68022142D01*
X184011428Y-67879285D01*
X184011428Y-66593571D01*
X185368571Y-68022142D02*
X185225714Y-68093571D01*
X184940000Y-68093571D01*
X184797142Y-68022142D01*
X184725714Y-67879285D01*
X184725714Y-67307857D01*
X184797142Y-67165000D01*
X184940000Y-67093571D01*
X185225714Y-67093571D01*
X185368571Y-67165000D01*
X185440000Y-67307857D01*
X185440000Y-67450714D01*
X184725714Y-67593571D01*
X185868571Y-67093571D02*
X186440000Y-67093571D01*
X186082857Y-66593571D02*
X186082857Y-67879285D01*
X186154285Y-68022142D01*
X186297142Y-68093571D01*
X186440000Y-68093571D01*
X186940000Y-67950714D02*
X187011428Y-68022142D01*
X186940000Y-68093571D01*
X186868571Y-68022142D01*
X186940000Y-67950714D01*
X186940000Y-68093571D01*
D11*
%TO.C,J1*%
X186686666Y-82397380D02*
X186686666Y-83111666D01*
X186639047Y-83254523D01*
X186543809Y-83349761D01*
X186400952Y-83397380D01*
X186305714Y-83397380D01*
X187686666Y-83397380D02*
X187115238Y-83397380D01*
X187400952Y-83397380D02*
X187400952Y-82397380D01*
X187305714Y-82540238D01*
X187210476Y-82635476D01*
X187115238Y-82683095D01*
%TO.C,D1*%
X149122380Y-95168095D02*
X148122380Y-95168095D01*
X148122380Y-94930000D01*
X148170000Y-94787142D01*
X148265238Y-94691904D01*
X148360476Y-94644285D01*
X148550952Y-94596666D01*
X148693809Y-94596666D01*
X148884285Y-94644285D01*
X148979523Y-94691904D01*
X149074761Y-94787142D01*
X149122380Y-94930000D01*
X149122380Y-95168095D01*
X149122380Y-93644285D02*
X149122380Y-94215714D01*
X149122380Y-93930000D02*
X148122380Y-93930000D01*
X148265238Y-94025238D01*
X148360476Y-94120476D01*
X148408095Y-94215714D01*
D12*
%TO.C,BR1*%
X166150952Y-91659285D02*
X166332380Y-91719761D01*
X166392857Y-91780238D01*
X166453333Y-91901190D01*
X166453333Y-92082619D01*
X166392857Y-92203571D01*
X166332380Y-92264047D01*
X166211428Y-92324523D01*
X165727619Y-92324523D01*
X165727619Y-91054523D01*
X166150952Y-91054523D01*
X166271904Y-91115000D01*
X166332380Y-91175476D01*
X166392857Y-91296428D01*
X166392857Y-91417380D01*
X166332380Y-91538333D01*
X166271904Y-91598809D01*
X166150952Y-91659285D01*
X165727619Y-91659285D01*
X167723333Y-92324523D02*
X167300000Y-91719761D01*
X166997619Y-92324523D02*
X166997619Y-91054523D01*
X167481428Y-91054523D01*
X167602380Y-91115000D01*
X167662857Y-91175476D01*
X167723333Y-91296428D01*
X167723333Y-91477857D01*
X167662857Y-91598809D01*
X167602380Y-91659285D01*
X167481428Y-91719761D01*
X166997619Y-91719761D01*
X168932857Y-92324523D02*
X168207142Y-92324523D01*
X168570000Y-92324523D02*
X168570000Y-91054523D01*
X168449047Y-91235952D01*
X168328095Y-91356904D01*
X168207142Y-91417380D01*
D11*
%TO.C,1k1*%
X154862380Y-95000238D02*
X154862380Y-95571666D01*
X154862380Y-95285952D02*
X153862380Y-95285952D01*
X154005238Y-95381190D01*
X154100476Y-95476428D01*
X154148095Y-95571666D01*
X154862380Y-94571666D02*
X153862380Y-94571666D01*
X154481428Y-94476428D02*
X154862380Y-94190714D01*
X154195714Y-94190714D02*
X154576666Y-94571666D01*
X154862380Y-93238333D02*
X154862380Y-93809761D01*
X154862380Y-93524047D02*
X153862380Y-93524047D01*
X154005238Y-93619285D01*
X154100476Y-93714523D01*
X154148095Y-93809761D01*
%TO.C,39k1*%
X153912380Y-89245476D02*
X153912380Y-88626428D01*
X154293333Y-88959761D01*
X154293333Y-88816904D01*
X154340952Y-88721666D01*
X154388571Y-88674047D01*
X154483809Y-88626428D01*
X154721904Y-88626428D01*
X154817142Y-88674047D01*
X154864761Y-88721666D01*
X154912380Y-88816904D01*
X154912380Y-89102619D01*
X154864761Y-89197857D01*
X154817142Y-89245476D01*
X154912380Y-88150238D02*
X154912380Y-87959761D01*
X154864761Y-87864523D01*
X154817142Y-87816904D01*
X154674285Y-87721666D01*
X154483809Y-87674047D01*
X154102857Y-87674047D01*
X154007619Y-87721666D01*
X153960000Y-87769285D01*
X153912380Y-87864523D01*
X153912380Y-88055000D01*
X153960000Y-88150238D01*
X154007619Y-88197857D01*
X154102857Y-88245476D01*
X154340952Y-88245476D01*
X154436190Y-88197857D01*
X154483809Y-88150238D01*
X154531428Y-88055000D01*
X154531428Y-87864523D01*
X154483809Y-87769285D01*
X154436190Y-87721666D01*
X154340952Y-87674047D01*
X154912380Y-87245476D02*
X153912380Y-87245476D01*
X154531428Y-87150238D02*
X154912380Y-86864523D01*
X154245714Y-86864523D02*
X154626666Y-87245476D01*
X154912380Y-85912142D02*
X154912380Y-86483571D01*
X154912380Y-86197857D02*
X153912380Y-86197857D01*
X154055238Y-86293095D01*
X154150476Y-86388333D01*
X154198095Y-86483571D01*
%TO.C,A1*%
X133045714Y-62956666D02*
X133521904Y-62956666D01*
X132950476Y-63242380D02*
X133283809Y-62242380D01*
X133617142Y-63242380D01*
X134474285Y-63242380D02*
X133902857Y-63242380D01*
X134188571Y-63242380D02*
X134188571Y-62242380D01*
X134093333Y-62385238D01*
X133998095Y-62480476D01*
X133902857Y-62528095D01*
D13*
%TO.C,J1*%
X193190000Y-95240000D02*
X191305000Y-95240000D01*
X191305000Y-96735000D02*
X188830000Y-96735000D01*
X182435000Y-83735000D02*
X184845000Y-83735000D01*
X180850000Y-95240000D02*
X182735000Y-95240000D01*
X185210000Y-96735000D02*
X185210000Y-98285000D01*
X182735000Y-96735000D02*
X185210000Y-96735000D01*
X187020000Y-84035000D02*
X191305000Y-84035000D01*
X180850000Y-91720000D02*
X182735000Y-91720000D01*
X188830000Y-96735000D02*
X188830000Y-98285000D01*
X182735000Y-84035000D02*
X182735000Y-96735000D01*
X182435000Y-86145000D02*
X182435000Y-83735000D01*
X193190000Y-91720000D02*
X191305000Y-91720000D01*
X188830000Y-98285000D02*
X187020000Y-98285000D01*
X185210000Y-98285000D02*
X187020000Y-98285000D01*
X187020000Y-84035000D02*
X182735000Y-84035000D01*
X191305000Y-84035000D02*
X191305000Y-96735000D01*
X193190000Y-95240000D02*
G75*
G03*
X193190000Y-91720000I0J1760000D01*
G01*
X180850000Y-91720000D02*
G75*
G03*
X180850000Y-95240000I0J-1760000D01*
G01*
%TO.C,D1*%
X145670000Y-91880000D02*
X145670000Y-96180000D01*
X147670000Y-96180000D02*
X147670000Y-91880000D01*
X147670000Y-91880000D02*
X145670000Y-91880000D01*
D14*
%TO.C,BR1*%
X160000000Y-81950000D02*
X177100000Y-81950000D01*
X157500000Y-101550000D02*
X177100000Y-101550000D01*
D13*
%TO.C,1k1*%
X153190000Y-93872133D02*
G75*
G03*
X151740641Y-93775095I-700000J417133D01*
G01*
%TO.C,39k1*%
X153240000Y-87022133D02*
G75*
G03*
X151790641Y-86925095I-700000J417133D01*
G01*
%TO.C,A1*%
X124740000Y-107370000D02*
X142780000Y-107370000D01*
X127410000Y-66600000D02*
X124740000Y-66600000D01*
X140110000Y-66600000D02*
X142780000Y-66600000D01*
X142780000Y-107370000D02*
X142780000Y-63930000D01*
X124740000Y-63930000D02*
X124740000Y-66600000D01*
X127410000Y-69140000D02*
X127410000Y-104700000D01*
X140110000Y-66600000D02*
X140110000Y-104700000D01*
X127410000Y-69140000D02*
X124740000Y-69140000D01*
X127410000Y-69140000D02*
X127410000Y-66600000D01*
X142780000Y-63930000D02*
X124740000Y-63930000D01*
X140110000Y-104700000D02*
X142780000Y-104700000D01*
X127410000Y-104700000D02*
X124740000Y-104700000D01*
X124740000Y-69140000D02*
X124740000Y-107370000D01*
%TD*%
M02*
